<?xml version="1.0" encoding="utf-8" ?>
<svg baseProfile="tiny" height="51.2" version="1.2" width="51.2" xmlns="http://www.w3.org/2000/svg" xmlns:ev="http://www.w3.org/2001/xml-events" xmlns:xlink="http://www.w3.org/1999/xlink"><defs /><polyline fill="none" points="22.1,50.7 22.0,50.8 21.7,50.8 21.6,50.9 21.5,50.9 21.4,51.0 21.3,51.0 21.2,51.1 23.1,51.1 23.0,51.0 22.9,51.0 22.8,50.9 22.7,50.9 22.6,50.8 22.5,50.8 22.4,50.7" stroke="black" stroke-width="1" /><polyline fill="none" points="40.9,24.2 40.9,24.3 41.1,24.5 41.2,24.5 41.3,24.6 41.4,24.6 41.5,24.7 41.6,24.6 42.6,24.6 42.7,24.5 43.4,24.5 43.5,24.4 43.7,24.4 43.5,24.4 43.4,24.3 42.5,24.3 42.4,24.2" stroke="black" stroke-width="1" /><polyline fill="none" points="36.2,23.7 36.2,23.8 36.4,23.8 36.5,23.9 36.7,23.9 36.8,24.0 37.2,24.0 37.3,24.1 38.5,24.1 38.6,24.0 38.8,24.0 38.5,24.0 38.4,23.9 37.9,23.9 37.8,23.8 36.7,23.8 36.6,23.7" stroke="black" stroke-width="1" /><polyline fill="none" points="51.1,21.0 50.8,21.3 50.7,21.3 50.6,21.4 50.5,21.4 50.4,21.5 50.3,21.5 50.2,21.6 49.9,21.6 49.8,21.7 49.5,21.7 49.4,21.8 49.0,21.8 48.9,21.9 47.4,21.9 47.6,22.1 47.7,22.1 47.8,22.2 47.9,22.2 48.3,22.6 48.3,22.7 48.2,22.8 48.2,22.9 47.8,23.3 47.8,23.4 47.6,23.6 47.5,23.6 47.3,23.8 47.2,23.8 47.1,23.9 46.8,23.9 46.7,24.0 46.4,24.0 46.3,24.1 45.7,24.1 45.6,24.2 44.9,24.2 44.8,24.1 44.3,24.1 44.2,24.0 43.7,24.0 43.6,23.9 43.2,23.9 43.1,23.8 42.5,23.8 42.4,23.7 42.0,23.7 42.0,23.8 42.2,23.8 42.3,23.9 42.7,23.9 42.8,24.0 43.3,24.0 43.4,24.1 44.0,24.1 44.1,24.2 44.4,24.2 44.5,24.3 44.6,24.3 44.9,24.6 44.9,24.9 44.6,25.2 45.8,25.2 45.9,25.3 46.0,25.3 46.3,25.6 46.3,25.8 46.4,25.9 46.3,26.0 46.3,26.1 46.4,26.0 46.6,26.0 46.7,25.9 46.8,25.9 46.9,25.8 47.0,25.8 47.1,25.7 47.2,25.7 47.3,25.6 47.5,25.6 47.6,25.5 47.8,25.5 47.9,25.4 48.2,25.4 48.3,25.5 48.5,25.5 48.7,25.7 48.7,26.1 48.6,26.2 48.8,26.2 48.9,26.1 49.1,26.1 49.2,26.0 49.5,26.0 49.6,25.9 49.8,25.9 49.9,25.8 50.1,25.8 50.2,25.7 50.5,25.7 50.6,25.6 50.9,25.6 51.0,25.5 51.1,25.5" stroke="black" stroke-width="1" /><polyline fill="none" points="50.9,19.9 50.8,20.0 49.0,20.0 49.5,20.0 49.6,20.1 51.1,20.1 51.1,19.9" stroke="black" stroke-width="1" /><polyline fill="none" points="50.6,17.3 50.5,17.4 50.5,17.5 50.4,17.6 50.4,17.7 50.1,18.0 50.1,18.1 49.7,18.5 49.6,18.5 49.3,18.8 49.2,18.8 49.0,19.0 48.9,19.0 50.0,19.0 50.1,18.9 50.9,18.9 51.0,18.8 51.1,18.8 51.1,17.6 51.0,17.5 50.8,17.5" stroke="black" stroke-width="1" /><polyline fill="none" points="51.1,16.5 51.1,16.6 51.0,16.7 50.9,16.7 51.1,16.7" stroke="black" stroke-width="1" /><polyline fill="none" points="50.8,9.8 50.5,10.1 50.6,10.2 50.6,10.9 50.2,11.3 50.1,11.3 50.0,11.4 49.6,11.4 49.5,11.5 49.3,11.5 49.4,11.6 49.4,11.7 49.5,11.8 49.5,12.3 49.1,12.7 49.0,12.7 48.9,12.8 48.7,12.8 48.6,12.9 47.2,12.9 47.5,12.9 47.7,13.1 47.7,13.4 47.6,13.5 47.6,13.6 47.3,13.9 47.2,13.9 47.0,14.1 46.9,14.1 46.8,14.2 46.6,14.2 46.5,14.3 46.1,14.3 46.0,14.4 45.1,14.4 45.0,14.5 42.8,14.5 42.7,14.6 42.6,14.6 42.9,14.6 43.0,14.7 42.8,14.9 42.8,15.0 42.3,15.5 42.2,15.5 42.1,15.6 42.0,15.6 41.9,15.7 41.6,15.7 41.5,15.8 41.2,15.8 41.1,15.9 40.9,15.9 40.8,16.0 40.3,16.0 40.2,16.1 38.4,16.1 38.3,16.2 37.4,16.2 37.3,16.3 36.7,16.3 36.6,16.4 36.3,16.4 36.2,16.5 37.0,16.5 37.1,16.6 40.3,16.6 40.4,16.5 40.5,16.5 40.6,16.4 41.0,16.4 41.1,16.5 41.4,16.5 41.7,16.2 41.9,16.2 42.0,16.1 42.2,16.3 42.2,16.5 42.3,16.5 42.4,16.4 42.7,16.4 42.8,16.3 43.1,16.3 43.2,16.2 43.4,16.2 43.5,16.1 43.7,16.1 43.9,15.9 44.0,15.9 44.2,15.7 44.3,15.7 44.5,15.5 44.6,15.5 44.8,15.3 44.9,15.3 45.0,15.2 45.1,15.2 45.2,15.1 45.3,15.1 45.4,15.0 46.3,15.0 46.4,15.1 47.3,15.1 47.4,15.0 47.7,15.0 47.8,14.9 48.2,14.9 48.3,14.8 48.6,14.8 48.7,14.9 48.8,14.9 49.3,15.4 49.3,15.9 49.4,15.9 49.6,15.7 49.7,15.7 50.0,15.4 50.1,15.4 50.2,15.3 50.3,15.3 50.4,15.2 50.8,15.2 50.9,15.3 51.0,15.3 51.1,15.4 51.1,9.8" stroke="black" stroke-width="1" /><polyline fill="none" points="44.5,8.2 44.4,8.3 44.1,8.3 44.0,8.4 43.6,8.4 43.5,8.5 42.6,8.5 42.5,8.6 42.2,8.6 42.1,8.7 41.8,8.7 41.7,8.8 41.5,8.8 41.4,8.9 41.1,8.9 41.0,9.0 40.6,9.0 40.4,8.8 40.5,8.7 40.5,8.6 40.4,8.6 40.3,8.7 40.0,8.7 39.9,8.8 39.7,8.8 39.6,8.9 39.2,8.9 39.1,9.0 38.5,9.0 38.4,9.1 38.1,9.1 38.0,9.2 37.9,9.2 37.7,9.4 37.6,9.4 37.5,9.5 37.4,9.5 37.3,9.6 37.2,9.6 37.1,9.7 36.9,9.7 36.8,9.8 36.6,9.8 36.5,9.9 36.2,9.9 36.1,10.0 35.9,10.0 35.8,10.1 35.6,10.1 35.5,10.2 35.4,10.2 35.3,10.3 35.1,10.3 35.0,10.4 34.8,10.4 34.7,10.5 34.6,10.5 34.5,10.6 34.3,10.6 34.2,10.7 34.1,10.7 34.0,10.8 33.9,10.8 33.8,10.9 33.7,10.9 33.6,11.0 33.5,11.0 33.4,11.1 33.1,11.1 33.0,11.2 32.8,11.2 32.7,11.3 32.4,11.3 32.3,11.4 32.6,11.4 32.7,11.3 33.1,11.3 33.2,11.2 33.3,11.3 34.8,11.3 34.9,11.2 35.3,11.2 35.4,11.1 35.6,11.1 35.7,11.0 35.9,11.0 36.0,10.9 36.2,10.9 36.3,10.8 36.5,10.8 36.7,10.6 36.8,10.6 36.9,10.5 37.0,10.5 36.9,10.5 36.8,10.4 36.7,10.4 36.5,10.2 36.5,9.9 36.6,9.8 37.4,9.8 37.5,9.7 37.7,9.7 37.8,9.6 38.1,9.6 38.2,9.5 38.6,9.5 38.7,9.4 39.1,9.4 39.2,9.3 39.7,9.3 39.8,9.2 41.5,9.2 41.6,9.3 41.9,9.3 42.0,9.2 42.3,9.2 42.4,9.1 42.7,9.1 42.8,9.0 43.0,9.0 43.1,8.9 43.3,8.9 43.4,8.8 43.6,8.8 43.7,8.7 43.9,8.7 44.0,8.6 44.2,8.6 44.3,8.5 44.5,8.5 44.6,8.4 44.6,8.2" stroke="black" stroke-width="1" /><polyline fill="none" points="41.4,7.9 41.3,8.0 41.2,8.0 41.4,8.0 41.5,7.9 41.7,7.9" stroke="black" stroke-width="1" /><polyline fill="none" points="43.6,7.6 43.7,7.6" stroke="black" stroke-width="1" /><polyline fill="none" points="22.7,5.4 22.8,5.4" stroke="black" stroke-width="1" /><polyline fill="none" points="18.7,1.4 19.3,2.0 19.3,2.1 19.5,2.3 19.5,2.5 19.7,2.7 19.7,2.6 19.6,2.5 19.6,2.3 19.5,2.2 19.5,2.1 19.4,2.0 19.4,1.9 19.2,1.7 19.2,1.6 19.0,1.4" stroke="black" stroke-width="1" /><polyline fill="none" points="40.8,0.0 40.8,0.1 40.7,0.2 40.7,0.4 40.6,0.5 40.6,0.6 40.5,0.7 40.5,0.8 40.2,1.1 40.2,1.3 40.5,1.6 40.5,1.7 40.4,1.8 40.3,1.8 40.2,1.9 40.1,1.9 40.0,2.0 39.8,2.0 39.7,2.1 39.6,2.1 39.5,2.2 39.4,2.2 39.3,2.3 39.2,2.3 39.1,2.4 39.0,2.4 38.7,2.7 38.6,2.7 38.5,2.8 38.4,2.8 38.3,2.9 38.2,2.9 38.0,3.1 37.8,3.1 37.7,3.2 37.6,3.2 37.5,3.3 37.4,3.3 37.3,3.4 37.2,3.4 37.1,3.5 36.9,3.5 36.8,3.6 36.7,3.6 36.6,3.7 36.4,3.7 36.3,3.8 36.2,3.8 36.1,3.9 36.0,3.9 35.9,4.0 35.8,4.0 35.8,4.1 36.0,4.3 36.1,4.3 36.2,4.4 36.3,4.4 36.4,4.3 36.6,4.3 36.7,4.2 36.9,4.2 37.0,4.1 37.2,4.1 37.3,4.0 37.6,4.0 37.7,3.9 38.5,3.9 38.6,3.8 39.5,3.8 39.6,3.7 40.1,3.7 40.2,3.6 40.3,3.6 40.5,3.4 40.6,3.4 40.9,3.1 41.0,3.1 41.9,2.2 42.0,2.2 42.1,2.1 42.2,2.1 42.3,2.0 42.5,2.0 42.6,2.1 42.7,2.1 42.9,2.3 42.9,2.4 43.0,2.5 43.0,2.6 43.1,2.6 43.2,2.5 43.3,2.5 43.5,2.3 43.6,2.3 43.7,2.2 43.8,2.2 44.0,2.0 44.1,2.0 44.2,1.9 44.6,1.9 44.9,2.2 44.9,2.3 45.0,2.4 45.0,2.7 45.1,2.6 45.2,2.6 45.3,2.5 45.5,2.5 45.6,2.4 45.9,2.4 46.0,2.3 46.6,2.3 46.7,2.4 46.9,2.4 47.1,2.6 47.1,2.7 47.2,2.8 47.3,2.8 47.4,2.7 47.5,2.7 47.6,2.6 47.7,2.6 47.8,2.5 48.1,2.5 48.2,2.6 48.3,2.6 48.4,2.7 48.4,3.2 48.3,3.3 48.3,3.4 48.0,3.7 47.9,3.7 47.7,3.9 47.6,3.9 47.5,4.0 47.4,4.0 47.3,4.1 47.2,4.1 47.1,4.2 46.9,4.2 46.8,4.3 46.7,4.3 46.6,4.4 46.9,4.4 47.0,4.3 47.2,4.3 47.3,4.2 47.6,4.2 47.7,4.3 47.7,4.7 47.6,4.8 47.6,4.9 47.4,5.1 47.4,5.2 46.9,5.7 46.8,5.7 46.7,5.8 46.6,5.8 46.4,6.0 46.4,6.1 46.5,6.2 46.5,6.7 46.4,6.8 46.4,6.9 46.2,7.1 46.1,7.1 45.9,7.3 45.8,7.3 45.7,7.4 45.7,7.8 45.6,7.9 45.6,8.0 45.0,8.6 45.0,8.8 45.1,8.8 45.2,8.9 45.3,8.9 45.4,9.0 45.5,9.0 45.6,9.1 45.6,9.2 45.5,9.3 46.7,8.1 46.8,8.1 47.0,7.9 47.1,7.9 47.4,7.6 47.5,7.6 47.7,7.4 47.8,7.4 47.9,7.3 48.0,7.3 48.1,7.2 48.3,7.2 48.4,7.1 48.6,7.1 48.7,7.0 48.8,7.0 48.9,6.9 49.3,6.9 49.4,6.8 49.5,6.9 49.7,6.9 50.0,7.2 50.0,7.4 50.6,7.4 50.8,7.6 50.8,7.8 50.7,7.9 50.7,8.0 50.5,8.2 50.5,8.3 50.3,8.5 50.2,8.5 50.0,8.7 49.9,8.7 49.8,8.8 49.7,8.8 51.1,8.8 51.1,0.0" stroke="black" stroke-width="1" /><polyline fill="none" points="38.7,0.0 38.8,0.1 38.8,0.4 38.7,0.5 38.7,0.6 38.8,0.7 38.9,0.7 39.0,0.6 39.0,0.5 39.1,0.4 39.1,0.3 39.2,0.2 39.2,0.1 39.3,0.0" stroke="black" stroke-width="1" /><polyline fill="none" points="19.8,0.0 20.9,0.0" stroke="black" stroke-width="1" /><polyline fill="none" points="0.0,0.0 0.0,51.1 20.1,51.1 20.6,50.6 20.7,50.6 20.9,50.4 21.1,50.4 21.2,50.3 21.3,50.3 21.4,50.2 21.7,50.2 21.8,50.1 22.6,50.1 22.7,50.2 23.0,50.2 23.1,50.3 23.2,50.3 23.3,50.4 23.4,50.4 23.5,50.5 23.6,50.5 23.8,50.7 23.9,50.7 24.0,50.8 24.2,50.8 24.3,50.9 24.5,50.9 24.6,51.0 25.8,51.0 25.9,51.1 51.1,51.1 51.1,30.1 50.8,30.1 50.7,30.2 50.0,30.2 49.9,30.3 49.0,30.3 48.9,30.2 48.5,30.2 48.4,30.1 48.2,30.1 48.1,30.0 48.0,30.0 47.9,29.9 47.8,29.9 47.2,29.3 47.2,29.2 47.3,29.1 49.2,29.1 49.3,29.2 49.9,29.2 49.7,29.2 49.6,29.1 49.2,29.1 49.0,28.9 49.0,28.8 49.2,28.6 49.3,28.6 49.4,28.5 51.1,28.5 51.1,27.8 51.0,27.8 50.9,27.7 50.8,27.7 50.5,27.4 50.6,27.3 50.6,27.2 50.7,27.1 50.8,27.1 51.0,26.9 51.1,26.9 51.1,26.4 51.0,26.5 50.7,26.5 50.6,26.6 50.3,26.6 50.2,26.7 50.0,26.7 49.9,26.8 49.7,26.8 49.6,26.9 49.3,26.9 49.2,27.0 49.0,27.0 48.9,27.1 48.8,27.1 48.7,27.2 48.5,27.2 48.4,27.3 47.6,27.3 47.4,27.1 47.4,26.9 47.5,26.8 47.5,26.7 47.8,26.4 47.7,26.4 47.6,26.5 47.5,26.5 47.3,26.7 47.2,26.7 47.0,26.9 46.8,26.9 46.7,27.0 46.4,27.0 46.3,27.1 45.9,27.1 45.8,27.2 45.2,27.2 45.1,27.3 44.6,27.3 44.5,27.2 44.3,27.2 44.2,27.1 44.2,27.0 44.1,26.9 44.1,26.6 44.2,26.5 44.3,26.5 44.4,26.4 44.5,26.4 44.6,26.3 44.8,26.3 44.9,26.2 43.2,26.2 43.1,26.1 42.9,26.1 42.6,25.8 42.6,25.6 42.8,25.4 42.9,25.4 43.0,25.3 43.1,25.3 42.9,25.3 42.8,25.4 42.1,25.4 42.0,25.5 39.6,25.5 39.5,25.4 39.2,25.4 39.1,25.3 38.9,25.3 38.8,25.2 38.6,25.2 38.5,25.1 38.3,25.1 38.2,25.0 37.9,25.0 37.8,24.9 37.7,24.9 37.6,24.8 37.5,24.8 37.5,25.1 37.3,25.3 37.1,25.3 37.0,25.2 36.9,25.2 36.8,25.1 36.7,25.1 36.6,25.0 36.5,25.0 36.4,24.9 36.3,24.9 36.1,24.7 36.0,24.7 35.9,24.6 35.8,24.6 35.7,24.5 35.6,24.5 35.4,24.3 35.3,24.3 35.2,24.2 35.0,24.2 34.9,24.1 34.8,24.1 34.7,24.0 34.6,24.0 34.5,23.9 34.4,23.9 34.3,23.8 34.2,23.8 33.8,23.4 33.8,23.3 34.0,23.1 34.2,23.1 34.3,23.0 38.1,23.0 38.2,23.1 38.6,23.1 38.7,23.2 39.1,23.2 39.2,23.3 39.5,23.3 39.6,23.4 39.7,23.4 39.8,23.5 39.9,23.5 40.0,23.6 40.1,23.6 40.1,23.4 40.2,23.3 40.2,23.2 40.3,23.1 40.4,23.1 40.6,22.9 40.8,22.9 40.9,22.8 41.7,22.8 41.8,22.9 42.4,22.9 42.5,23.0 43.1,23.0 43.2,23.1 43.6,23.1 43.7,23.2 44.2,23.2 44.3,23.3 44.9,23.3 45.0,23.4 45.6,23.4 45.5,23.4 45.4,23.3 45.1,23.3 45.0,23.2 44.8,23.2 44.6,23.0 44.6,22.6 44.8,22.4 45.2,22.4 45.3,22.3 45.9,22.3 46.0,22.2 46.6,22.2 46.7,22.1 46.6,22.0 46.5,22.0 46.1,21.6 46.1,21.2 46.2,21.1 46.4,21.1 46.5,21.0 48.9,21.0 49.0,20.9 49.1,20.9 48.9,20.9 48.8,20.8 48.7,20.8 48.1,20.2 48.1,19.9 48.0,19.8 48.0,19.7 47.7,19.7 47.3,19.3 47.3,19.2 47.4,19.1 47.4,19.0 47.9,18.5 48.0,18.5 48.1,18.4 48.2,18.4 48.4,18.2 48.5,18.2 49.1,17.6 49.2,17.6 49.3,17.5 49.3,17.4 49.6,17.1 49.6,17.0 49.7,16.9 49.7,16.8 49.6,16.8 49.5,16.7 49.4,16.8 49.3,16.8 49.2,16.9 49.0,16.9 48.9,17.0 48.8,17.0 48.7,17.1 48.6,17.1 48.5,17.2 48.4,17.2 48.3,17.3 48.2,17.3 48.1,17.4 47.9,17.4 47.7,17.2 47.7,16.8 47.8,16.7 47.8,16.5 47.9,16.4 47.9,16.2 48.0,16.1 48.0,15.9 48.1,15.8 47.9,15.8 47.8,15.9 47.7,15.9 47.6,16.0 47.5,16.0 47.4,16.1 47.3,16.1 47.2,16.2 47.1,16.2 47.0,16.3 46.9,16.3 46.8,16.4 46.7,16.4 46.2,16.9 46.1,16.9 46.0,17.0 45.8,17.0 45.5,16.7 45.5,16.4 45.6,16.3 45.6,16.2 45.7,16.1 45.7,16.0 45.8,15.9 45.7,15.9 45.6,16.0 45.4,16.0 45.2,16.2 45.1,16.2 44.9,16.4 44.8,16.4 44.7,16.5 44.6,16.5 44.4,16.7 44.3,16.7 44.2,16.8 44.1,16.8 43.9,17.0 43.8,17.0 43.7,17.1 43.6,17.1 43.4,17.3 43.3,17.3 43.1,17.5 42.9,17.5 42.8,17.6 42.7,17.6 42.6,17.7 42.4,17.7 42.3,17.8 41.9,17.8 41.8,17.9 40.8,17.9 40.7,17.8 40.5,17.8 40.4,17.7 40.4,17.6 40.3,17.5 40.3,17.4 39.9,17.4 39.8,17.5 38.6,17.5 38.5,17.4 36.7,17.4 36.6,17.3 35.9,17.3 35.8,17.2 35.3,17.2 35.2,17.1 34.8,17.1 34.7,17.0 34.6,17.0 34.5,16.9 34.4,16.9 34.3,16.8 34.3,16.5 34.7,16.1 34.8,16.1 34.9,16.0 35.0,16.0 35.1,15.9 35.2,15.9 35.3,15.8 35.5,15.8 35.6,15.7 35.7,15.7 35.8,15.6 36.1,15.6 36.2,15.5 36.4,15.5 36.5,15.4 36.9,15.4 37.0,15.3 37.6,15.3 37.7,15.2 40.0,15.2 40.1,15.1 40.1,15.0 40.2,14.9 40.2,14.7 40.3,14.6 40.3,14.2 40.4,14.1 40.4,14.0 40.6,13.8 40.7,13.8 40.8,13.7 44.1,13.7 44.2,13.6 44.3,13.7 44.8,13.7 44.9,13.6 45.6,13.6 45.7,13.5 46.1,13.5 46.0,13.4 45.6,13.4 45.5,13.3 45.2,13.3 45.1,13.2 45.0,13.2 44.9,13.1 44.8,13.1 44.6,12.9 44.5,12.9 44.2,12.6 44.2,12.5 44.5,12.2 44.6,12.2 44.7,12.1 45.3,12.1 45.4,12.0 48.6,12.0 48.5,11.9 48.3,11.9 48.2,11.8 48.1,11.8 47.7,11.4 47.7,11.1 48.0,10.8 48.2,10.8 48.3,10.7 48.9,10.7 49.0,10.6 49.1,10.6 48.7,10.6 48.6,10.5 48.5,10.5 48.4,10.4 48.4,10.2 48.5,10.1 48.5,10.0 48.6,9.9 48.7,9.9 48.8,9.8 49.1,9.8 49.2,9.7 49.4,9.7 48.6,9.7 48.2,9.3 48.2,9.2 48.1,9.1 48.1,8.8 48.2,8.7 48.2,8.6 48.3,8.5 48.4,8.5 48.5,8.4 48.6,8.4 48.7,8.3 48.8,8.3 48.9,8.2 49.0,8.2 49.3,7.9 49.1,7.9 49.0,8.0 48.7,8.0 48.6,8.1 48.5,8.1 48.4,8.2 48.3,8.2 48.2,8.3 48.1,8.3 48.0,8.4 47.9,8.4 47.8,8.5 47.7,8.5 46.1,10.1 46.0,10.1 45.8,10.3 44.7,10.3 44.3,9.9 44.3,9.8 44.2,9.7 44.2,9.6 44.1,9.5 44.0,9.5 43.9,9.6 43.8,9.6 43.7,9.7 43.5,9.7 43.4,9.8 43.2,9.8 43.1,9.9 43.0,9.9 42.9,10.0 42.7,10.0 42.6,10.1 42.4,10.1 42.3,10.2 42.0,10.2 41.9,10.3 41.6,10.3 41.5,10.4 41.1,10.4 41.0,10.5 40.4,10.5 40.3,10.6 39.4,10.6 39.3,10.5 39.2,10.5 38.9,10.2 38.5,10.2 38.4,10.3 38.3,10.3 38.3,10.8 37.9,11.2 37.7,11.2 37.6,11.3 37.3,11.3 37.2,11.4 37.1,11.4 37.0,11.5 36.7,11.5 36.6,11.6 36.4,11.6 36.3,11.7 36.3,11.9 36.4,12.0 36.3,12.1 36.3,12.2 36.2,12.3 36.1,12.3 36.0,12.4 35.7,12.4 35.6,12.3 35.0,12.3 34.9,12.2 34.6,12.2 34.6,12.3 34.2,12.7 32.7,12.7 32.6,12.6 32.5,12.6 32.3,12.4 32.3,12.2 32.4,12.1 32.3,12.1 32.2,12.0 31.5,12.0 31.3,11.8 31.3,11.3 31.5,11.1 31.6,11.1 31.7,11.0 31.8,11.0 31.9,10.9 31.9,10.8 32.0,10.7 32.0,10.6 32.1,10.5 32.1,10.4 32.3,10.2 32.4,10.2 32.5,10.1 32.6,10.1 32.6,10.0 32.8,9.8 32.8,9.6 33.4,9.0 33.5,9.0 33.6,8.9 33.7,8.9 33.8,9.0 33.9,9.0 34.1,9.2 34.1,9.4 34.0,9.5 34.0,9.6 33.8,9.8 33.9,9.8 34.2,9.5 34.2,9.4 34.5,9.1 34.5,9.0 34.9,8.6 35.5,8.6 35.7,8.8 35.7,9.3 35.8,9.3 35.9,9.2 36.1,9.2 36.2,9.1 36.3,9.1 36.4,9.0 36.5,9.0 36.6,8.9 36.7,8.9 36.8,8.8 36.9,8.8 37.1,8.6 37.2,8.6 37.4,8.4 37.5,8.4 37.6,8.3 37.6,8.2 37.5,8.1 37.5,8.0 37.6,7.9 37.6,7.8 37.9,7.5 38.1,7.5 38.2,7.4 38.4,7.4 38.5,7.3 38.9,7.3 39.0,7.4 39.1,7.4 39.3,7.6 39.3,7.7 39.4,7.8 39.2,8.0 39.1,8.0 39.4,8.0 39.5,7.9 39.6,7.9 39.7,7.8 40.0,7.8 40.1,7.7 40.4,7.7 40.5,7.6 41.0,7.6 41.1,7.5 42.5,7.5 42.6,7.4 43.1,7.4 43.1,7.1 43.5,6.7 43.7,6.7 43.8,6.6 44.0,6.6 44.1,6.5 44.3,6.5 44.4,6.4 44.5,6.4 44.5,6.2 44.6,6.1 44.6,5.9 44.7,5.8 44.8,5.8 44.9,5.7 45.2,5.7 45.3,5.6 45.5,5.6 45.6,5.5 45.7,5.5 45.8,5.4 45.9,5.4 46.1,5.2 46.2,5.2 45.8,5.2 45.7,5.1 45.4,5.1 45.2,4.9 44.6,4.9 44.4,4.7 44.4,4.4 45.1,3.7 45.0,3.8 44.8,3.8 44.7,3.9 44.5,3.9 44.4,4.0 44.2,4.0 44.1,3.9 44.0,3.9 43.8,3.7 43.8,3.6 43.7,3.5 43.7,3.4 43.6,3.5 43.5,3.5 43.4,3.6 43.3,3.6 43.2,3.7 43.0,3.7 42.9,3.8 42.6,3.8 42.5,3.7 42.4,3.7 42.3,3.6 42.3,3.5 42.1,3.3 41.3,4.1 41.2,4.1 41.0,4.3 40.9,4.3 40.8,4.4 40.6,4.4 40.5,4.5 39.9,4.5 39.8,4.6 38.9,4.6 38.8,4.7 38.3,4.7 38.2,4.8 37.8,4.8 37.7,4.9 37.4,4.9 37.3,5.0 37.1,5.0 37.1,5.1 37.0,5.2 37.0,5.4 36.7,5.7 36.4,5.7 36.3,5.6 36.1,5.6 35.9,5.4 35.8,5.4 35.7,5.3 35.6,5.3 35.5,5.2 35.4,5.2 35.3,5.1 35.2,5.1 35.1,5.0 35.0,5.0 34.9,4.9 34.8,4.9 34.4,4.5 34.4,4.4 34.5,4.3 34.5,4.1 35.1,3.5 35.2,3.5 35.4,3.3 35.5,3.3 35.6,3.2 35.7,3.2 35.8,3.1 35.9,3.1 36.0,3.0 36.1,3.0 36.2,2.9 36.5,2.9 36.6,2.8 36.8,2.8 36.9,2.7 37.0,2.7 37.1,2.6 37.2,2.6 37.4,2.4 37.5,2.4 37.5,2.3 37.6,2.2 37.6,1.9 37.7,1.8 37.7,1.6 37.8,1.5 37.8,1.2 37.9,1.1 37.9,1.0 38.0,0.9 38.1,1.0 38.1,1.4 38.1,1.2 38.2,1.1 38.2,0.0 25.2,0.0 25.1,0.1 25.1,0.2 25.0,0.3 24.9,0.3 24.8,0.4 24.7,0.4 24.6,0.5 24.4,0.5 24.3,0.6 23.8,0.6 23.7,0.7 23.2,0.7 23.1,0.8 22.4,0.8 22.3,0.9 21.6,0.9 21.5,0.8 20.6,0.8 20.5,0.7 19.8,0.7 20.0,0.9 20.0,1.0 20.1,1.1 20.1,1.3 20.2,1.4 20.2,2.2 20.3,2.3 20.3,2.5 20.4,2.6 20.4,3.0 20.3,3.1 20.3,3.2 20.2,3.3 20.4,3.5 20.5,3.5 20.6,3.6 20.8,3.6 20.9,3.7 21.0,3.7 21.1,3.8 21.3,3.8 21.4,3.9 21.6,3.9 21.7,4.0 22.0,4.0 22.1,4.1 22.4,4.1 22.5,4.2 22.8,4.2 22.9,4.3 23.1,4.3 23.0,4.2 23.2,4.0 23.9,4.0 24.0,4.1 24.1,4.1 24.2,4.2 24.3,4.2 24.6,4.5 24.7,4.5 25.0,4.8 25.0,4.9 25.1,5.0 25.0,5.1 25.0,5.2 24.7,5.5 23.0,5.5 23.2,5.5 23.3,5.6 23.5,5.6 23.6,5.7 23.7,5.7 23.8,5.8 23.9,5.8 24.0,5.9 24.1,5.9 24.2,6.0 24.3,6.0 24.5,6.2 24.6,6.2 25.2,6.8 25.2,6.9 25.3,7.0 25.3,7.2 25.2,7.3 25.1,7.3 25.0,7.4 24.6,7.4 24.5,7.3 24.1,7.3 24.0,7.2 23.7,7.2 23.8,7.2 24.0,7.4 24.0,7.5 24.1,7.6 24.1,8.0 24.2,8.1 24.1,8.2 24.1,8.3 24.0,8.4 23.5,8.4 23.4,8.3 23.2,8.3 23.1,8.2 22.9,8.2 22.8,8.1 22.7,8.1 22.6,8.0 22.5,8.0 22.3,7.8 22.3,7.7 22.2,7.6 22.2,7.3 22.1,7.2 22.1,7.1 21.7,6.7 21.6,6.7 21.4,6.5 21.2,6.5 21.1,6.4 21.0,6.4 20.9,6.3 20.7,6.3 20.6,6.4 20.5,6.4 20.4,6.5 20.1,6.5 20.0,6.6 19.1,6.6 19.0,6.5 18.9,6.5 18.7,6.3 18.7,6.2 18.6,6.1 18.6,6.0 18.5,5.9 18.5,5.7 18.4,5.6 18.4,5.1 18.3,5.0 18.3,4.8 18.2,4.8 18.1,4.9 18.1,5.0 17.5,5.6 17.4,5.6 17.3,5.7 17.0,5.7 16.8,5.5 16.8,5.2 16.7,5.1 16.7,4.8 16.6,4.7 16.6,4.4 16.5,4.3 16.5,3.9 16.4,3.8 16.4,3.6 16.3,3.5 16.3,3.4 16.3,3.7 16.4,3.8 16.4,4.1 16.1,4.4 16.0,4.4 15.9,4.5 15.8,4.5 15.7,4.4 15.5,4.4 15.1,4.0 15.0,4.0 14.1,3.1 14.0,3.1 13.8,2.9 13.7,2.9 13.5,2.7 13.4,2.7 13.3,2.6 13.2,2.6 13.1,2.5 12.9,2.5 12.8,2.4 12.7,2.4 12.7,2.6 12.8,2.7 12.8,2.8 12.9,2.9 12.9,3.1 13.0,3.2 13.0,3.6 12.7,3.9 11.9,3.9 11.8,3.8 11.6,3.8 11.5,3.7 11.4,3.8 11.6,4.0 11.7,4.0 12.0,4.3 12.0,4.4 12.1,4.5 12.1,4.7 11.9,4.9 11.8,4.9 11.7,5.0 11.2,5.0 11.1,4.9 11.0,4.9 10.7,4.6 10.6,4.6 10.4,4.4 10.2,4.4 10.1,4.3 10.0,4.3 9.8,4.5 9.8,4.7 9.9,4.8 10.4,4.8 10.5,4.9 10.8,4.9 10.9,5.0 11.0,5.0 11.1,5.1 11.2,5.1 11.4,5.3 11.4,5.5 11.2,5.7 10.2,5.7 10.1,5.6 9.6,5.6 10.5,6.5 10.5,6.6 10.6,6.7 10.6,6.8 10.7,6.8 10.9,7.0 11.0,7.0 11.2,7.2 11.2,7.3 11.3,7.4 11.0,7.7 10.8,7.7 10.7,7.8 10.3,7.8 10.2,7.7 9.8,7.7 9.7,7.6 9.6,7.6 9.5,7.5 9.3,7.5 9.2,7.4 9.0,7.4 8.9,7.3 8.8,7.3 8.7,7.2 8.4,7.2 8.3,7.1 7.8,7.1 7.7,7.0 7.5,7.0 7.3,6.8 7.3,6.7 7.2,6.6 7.2,6.5 7.3,6.4 7.3,6.3 7.5,6.1 7.6,6.1 7.7,6.0 8.0,6.0 8.1,5.9 8.6,5.9 8.1,5.4 8.1,5.3 8.2,5.2 8.2,5.1 8.3,5.0 8.4,5.0 8.5,4.9 8.6,4.9 8.7,4.8 9.0,4.8 9.0,4.6 8.9,4.5 8.9,4.2 9.3,3.8 9.4,3.8 9.5,3.7 10.2,3.7 10.2,3.4 10.3,3.3 10.3,3.1 10.4,3.0 10.5,3.0 10.6,2.9 11.2,2.9 11.3,3.0 11.6,3.0 11.7,3.1 11.8,3.1 11.8,2.8 11.7,2.7 11.7,2.6 11.6,2.5 11.6,2.0 11.9,1.7 13.1,1.7 13.2,1.8 13.4,1.8 13.5,1.9 13.6,1.9 13.7,2.0 13.8,2.0 13.9,2.1 14.0,2.1 14.1,2.2 14.2,2.2 14.3,2.3 14.4,2.3 14.6,2.5 14.7,2.5 15.0,2.8 15.1,2.8 15.3,3.0 15.7,3.0 15.9,2.8 16.0,2.8 16.3,2.5 16.7,2.5 17.2,3.0 17.2,3.1 17.3,3.2 17.3,3.3 17.4,3.4 17.4,3.5 17.5,3.6 17.5,3.9 17.6,4.0 17.6,4.2 18.0,3.8 18.2,3.8 18.3,3.7 18.6,3.7 18.7,3.8 18.8,3.8 19.1,4.1 19.1,4.2 19.2,4.3 19.2,4.7 19.3,4.8 19.3,5.2 19.4,5.3 19.4,5.6 19.6,5.8 20.1,5.8 20.2,5.7 21.4,5.7 21.5,5.8 21.9,5.8 22.0,5.9 22.2,5.9 22.3,6.0 22.3,6.2 22.2,6.3 22.2,6.4 22.3,6.4 22.4,6.5 22.7,6.5 22.8,6.6 23.2,6.6 23.3,6.5 23.3,6.4 23.2,6.4 23.1,6.3 22.9,6.3 22.8,6.2 22.7,6.2 22.6,6.1 22.5,6.1 22.1,5.7 22.1,5.6 22.2,5.5 22.2,5.4 22.3,5.3 22.5,5.3 22.3,5.1 22.2,5.1 22.1,5.0 22.0,5.0 21.9,4.9 21.6,4.9 21.5,4.8 21.3,4.8 21.2,4.7 21.1,4.7 21.0,4.6 20.8,4.6 20.7,4.5 20.6,4.5 20.5,4.4 20.4,4.4 20.2,4.2 20.1,4.2 19.9,4.0 19.7,4.0 19.6,3.9 19.5,3.9 19.4,3.8 19.3,3.8 19.0,3.5 19.0,3.0 18.9,2.9 18.9,2.8 18.5,2.4 18.4,2.4 18.3,2.3 18.2,2.3 17.4,1.5 17.4,1.4 17.3,1.3 17.3,1.1 17.2,1.0 17.2,0.9 17.3,0.8 17.3,0.7 17.4,0.6 17.5,0.6 17.6,0.5 18.7,0.5 18.6,0.5 18.4,0.3 18.3,0.3 18.0,0.0" stroke="black" stroke-width="1" /></svg>